HIERARCHY
ROOT hip
{
  OFFSET 0 0 0
  CHANNELS 6 Xposition Yposition Zposition Zrotation Yrotation Xrotation
  JOINT abdomen
  {
    OFFSET 0 20.6881 -0.73152
    CHANNELS 3 Zrotation Xrotation Yrotation
    JOINT chest
    {
      OFFSET 0 11.7043 -0.48768
      CHANNELS 3 Zrotation Xrotation Yrotation
      JOINT neck
      {
        OFFSET 0 22.1894 -2.19456
        CHANNELS 3 Zrotation Xrotation Yrotation
        JOINT head
        {
          OFFSET -0.24384 7.07133 1.2192
          CHANNELS 3 Zrotation Xrotation Yrotation
          JOINT leftEye
          {
            OFFSET 4.14528 8.04674 8.04672
            CHANNELS 3 Zrotation Xrotation Yrotation
            End Site
            {
              OFFSET 1 0 0
            }
          }
          JOINT rightEye
          {
            OFFSET -3.6576 8.04674 8.04672
            CHANNELS 3 Zrotation Xrotation Yrotation
            End Site
            {
              OFFSET 1 0 0
            }
          }
        }
      }
      JOINT rCollar
      {
        OFFSET -2.68224 19.2634 -4.8768
        CHANNELS 3 Zrotation Xrotation Yrotation
        JOINT rShldr
        {
          OFFSET -8.77824 -1.95073 1.46304
          CHANNELS 3 Zrotation Xrotation Yrotation
          JOINT rForeArm
          {
            OFFSET -28.1742 -1.7115 0.48768
            CHANNELS 3 Zrotation Xrotation Yrotation
            JOINT rHand
            {
              OFFSET -22.5879 0.773209 7.07136
              CHANNELS 3 Zrotation Xrotation Yrotation
              JOINT rThumb1
              {
                OFFSET -1.2192 -0.487915 3.41376
                CHANNELS 3 Zrotation Xrotation Yrotation
                JOINT rThumb2
                {
                  OFFSET -3.37035 -0.52449 3.41376
                  CHANNELS 3 Zrotation Xrotation Yrotation
                  End Site
                  {
                    OFFSET -1.78271 -1.18214 1.43049
                  }
                }
              }
              JOINT rIndex1
              {
                OFFSET -7.75947 0.938293 5.60832
                CHANNELS 3 Zrotation Xrotation Yrotation
                JOINT rIndex2
                {
                  OFFSET -2.54057 -0.884171 1.56538
                  CHANNELS 3 Zrotation Xrotation Yrotation
                  End Site
                  {
                    OFFSET -1.62519 -0.234802 1.16502
                  }
                }
              }
              JOINT rMid1
              {
                OFFSET -8.24714 1.18213 3.41376
                CHANNELS 3 Zrotation Xrotation Yrotation
                JOINT rMid2
                {
                  OFFSET -3.10165 -0.590103 1.0647
                  CHANNELS 3 Zrotation Xrotation Yrotation
                  End Site
                  {
                    OFFSET -2.48547 -0.328903 0.83742
                  }
                }
              }
              JOINT rRing1
              {
                OFFSET -8.82822 0.546677 1.51678
                CHANNELS 3 Zrotation Xrotation Yrotation
                JOINT rRing2
                {
                  OFFSET -2.60934 -0.819778 -0.0198488
                  CHANNELS 3 Zrotation Xrotation Yrotation
                  End Site
                  {
                    OFFSET -2.33842 -0.294052 0.168128
                  }
                }
              }
              JOINT rPinky1
              {
                OFFSET -8.27202 -0.0477905 -0.4584
                CHANNELS 3 Zrotation Xrotation Yrotation
                JOINT rPinky2
                {
                  OFFSET -1.82734 -0.647385 -0.700984
                  CHANNELS 3 Zrotation Xrotation Yrotation
                  End Site
                  {
                    OFFSET -1.69225 -0.51767 -0.607171
                  }
                }
              }
            }
          }
        }
      }
      JOINT lCollar
      {
        OFFSET 2.68224 19.2634 -4.8768
        CHANNELS 3 Zrotation Xrotation Yrotation
        JOINT lShldr
        {
          OFFSET 8.77824 -1.95073 1.46304
          CHANNELS 3 Zrotation Xrotation Yrotation
          JOINT lForeArm
          {
            OFFSET 28.1742 -1.7115 0.48768
            CHANNELS 3 Zrotation Xrotation Yrotation
            JOINT lHand
            {
              OFFSET 22.5879 0.773209 7.07136
              CHANNELS 3 Zrotation Xrotation Yrotation
              JOINT lThumb1
              {
                OFFSET 1.2192 -0.487915 3.41376
                CHANNELS 3 Zrotation Xrotation Yrotation
                JOINT lThumb2
                {
                  OFFSET 3.37035 -0.52449 3.41376
                  CHANNELS 3 Zrotation Xrotation Yrotation
                  End Site
                  {
                    OFFSET 1.78271 -1.18214 1.43049
                  }
                }
              }
              JOINT lIndex1
              {
                OFFSET 7.75947 0.938293 5.60832
                CHANNELS 3 Zrotation Xrotation Yrotation
                JOINT lIndex2
                {
                  OFFSET 2.54057 -0.884171 1.56538
                  CHANNELS 3 Zrotation Xrotation Yrotation
                  End Site
                  {
                    OFFSET 1.62519 -0.234802 1.16502
                  }
                }
              }
              JOINT lMid1
              {
                OFFSET 8.24714 1.18213 3.41376
                CHANNELS 3 Zrotation Xrotation Yrotation
                JOINT lMid2
                {
                  OFFSET 3.10165 -0.590103 1.0647
                  CHANNELS 3 Zrotation Xrotation Yrotation
                  End Site
                  {
                    OFFSET 2.48547 -0.328903 0.83742
                  }
                }
              }
              JOINT lRing1
              {
                OFFSET 8.82822 0.546677 1.51678
                CHANNELS 3 Zrotation Xrotation Yrotation
                JOINT lRing2
                {
                  OFFSET 2.60934 -0.819778 -0.0198488
                  CHANNELS 3 Zrotation Xrotation Yrotation
                  End Site
                  {
                    OFFSET 2.33842 -0.294052 0.168128
                  }
                }
              }
              JOINT lPinky1
              {
                OFFSET 8.27202 -0.0477905 -0.4584
                CHANNELS 3 Zrotation Xrotation Yrotation
                JOINT lPinky2
                {
                  OFFSET 1.82734 -0.647385 -0.700984
                  CHANNELS 3 Zrotation Xrotation Yrotation
                  End Site
                  {
                    OFFSET 1.69225 -0.51767 -0.607171
                  }
                }
              }
            }
          }
        }
      }
    }
  }
  JOINT rButtock
  {
    OFFSET -8.77824 4.35084 1.2192
    CHANNELS 3 Zrotation Xrotation Yrotation
    JOINT rThigh
    {
      OFFSET 0 -1.70687 -2.19456
      CHANNELS 3 Zrotation Xrotation Yrotation
      JOINT rShin
      {
        OFFSET 0 -36.8199 0.73152
        CHANNELS 3 Zrotation Xrotation Yrotation
        JOINT rFoot
        {
          OFFSET 0.73152 -45.1104 -5.12064
          CHANNELS 3 Zrotation Xrotation Yrotation
          End Site
          {
            OFFSET -1.1221 -3.69964 12.103
          }
        }
      }
    }
  }
  JOINT lButtock
  {
    OFFSET 8.77824 4.35084 1.2192
    CHANNELS 3 Zrotation Xrotation Yrotation
    JOINT lThigh
    {
      OFFSET 0 -1.70687 -2.19456
      CHANNELS 3 Zrotation Xrotation Yrotation
      JOINT lShin
      {
        OFFSET 0 -36.8199 0.73152
        CHANNELS 3 Zrotation Xrotation Yrotation
        JOINT lFoot
        {
          OFFSET -0.73152 -45.1104 -5.12064
          CHANNELS 3 Zrotation Xrotation Yrotation
          End Site
          {
            OFFSET 1.1221 -3.69964 12.103
          }
        }
      }
    }
  }
}
MOTION
Frames:	6
Frame Time:	0.00833333
3.48553 82.504 46.8588 -6.3366 -4.8076 -0.3711 5.80562 10.8093 6.6074 -2.48215 -4.94294 1.79875 -1.20465 -1.54539 -2.78396 1.30264 -8.7436 -5.06551 -0.0 0.0 0.0 -0.0 0.0 0.0 -8.07097e-14 1.80212e-14 1.31248e-14 76.5741 13.6935 9.47113 -14.2534 -7.16045 26.0655 -0.00013916 -0.206438 -0.0290129 1.52033e-10 4.12144e-10 -4.01216e-10 2.61528e-10 7.14835e-10 -6.95747e-10 1.52035e-10 4.12146e-10 -4.01232e-10 7.73091 5.47488 0.417314 1.52032e-10 4.12142e-10 -4.01218e-10 2.90554 0.965183 0.102902 1.52037e-10 4.12145e-10 -4.01215e-10 10.2786 0.731801 0.0259123 1.52027e-10 4.12142e-10 -4.01208e-10 2.22167 -0.733487 -0.20892 -8.06909e-14 1.80213e-14 1.29109e-14 -81.4723 18.6807 2.59385 9.10545 -3.61614 -16.1329 0.0105541 -2.91599 0.410179 -1.7555e-12 2.35748e-11 7.61672e-10 -5.72624e-12 3.93927e-11 1.31757e-09 -1.75734e-12 2.35745e-11 7.61668e-10 -7.73091 5.47488 -0.417314 -1.75432e-12 2.35765e-11 7.61668e-10 -2.90554 0.965183 -0.102902 -1.75646e-12 2.35762e-11 7.61666e-10 -10.2786 0.731801 -0.0259123 -1.75235e-12 2.35774e-11 7.61656e-10 -2.22167 -0.733487 0.20892 -2.03217e-16 0.0 -3.88251e-19 10.9139 6.33021 5.85132 -0.219855 29.1496 0.281493 -1.31183 -9.94781 -3.72686 2.03217e-16 0.0 3.88251e-19 3.31843 -31.1068 -2.53343 0.123939 25.3933 0.236696 0.174556 -0.432917 -3.98973
3.705 82.4827 48.0507 -5.828 -4.8305 -0.6408 5.24809 10.823 6.67924 -2.40362 -4.92303 1.79975 -1.17582 -1.48494 -2.79234 1.31475 -8.64454 -5.09218 -0.0 0.0 0.0 -0.0 0.0 0.0 -8.51966e-14 6.3615e-15 2.79789e-14 76.8393 13.3805 9.06091 -14.2602 -7.16626 26.079 -2.91911e-05 -0.154284 -0.0216832 9.63812e-11 5.21153e-10 -1.78171e-10 1.65533e-10 9.03624e-10 -3.09649e-10 9.63847e-11 5.21155e-10 -1.78184e-10 7.73091 5.47488 0.417314 9.63806e-11 5.2115e-10 -1.78171e-10 2.90554 0.965183 0.102902 9.63861e-11 5.21153e-10 -1.78168e-10 10.2786 0.731801 0.0259123 9.63752e-11 5.21149e-10 -1.78162e-10 2.22167 -0.733487 -0.20892 -8.51675e-14 6.36111e-15 2.77305e-14 -81.4969 18.349 2.68722 8.93267 -3.51752 -15.8146 0.0085635 -2.64122 0.371466 4.01835e-11 -2.83775e-10 6.54418e-10 6.64947e-11 -4.92859e-10 1.13243e-09 4.01819e-11 -2.83776e-10 6.54415e-10 -7.73091 5.47488 -0.417314 4.01847e-11 -2.83774e-10 6.54415e-10 -2.90554 0.965183 -0.102902 4.01821e-11 -2.83774e-10 6.54413e-10 -10.2786 0.731801 -0.0259123 4.01869e-11 -2.83773e-10 6.54402e-10 -2.22167 -0.733487 0.20892 -2.03217e-16 0.0 -3.88251e-19 10.2312 5.89423 5.57978 -0.24337 31.0763 0.307488 -1.02923 -8.4736 -2.94858 2.03217e-16 0.0 3.88251e-19 2.61272 -30.9241 -2.65949 0.138619 26.2601 0.236957 0.169621 0.346827 -5.00923
3.91795 82.4888 49.2566 -5.1308 -4.8595 -0.9867 4.54968 10.8347 6.70344 -2.27279 -4.90153 1.78398 -1.20632 -1.4655 -2.81231 1.41686 -8.40722 -5.11797 -0.0 0.0 0.0 -0.0 0.0 0.0 -6.24158e-14 -1.3517e-14 -1.31812e-15 77.1486 12.8755 8.68278 -14.1857 -7.10582 25.9272 -1.83482e-05 -0.0102747 -0.00144138 -1.69302e-11 3.02985e-10 -2.48964e-11 -3.01794e-11 5.25996e-10 -4.37966e-11 -1.69263e-11 3.02986e-10 -2.49066e-11 7.73091 5.47488 0.417314 -1.69307e-11 3.02982e-10 -2.48968e-11 2.90554 0.965183 0.102902 -1.69249e-11 3.02984e-10 -2.48928e-11 10.2786 0.731801 0.0259123 -1.69359e-11 3.0298e-10 -2.48863e-11 2.22167 -0.733487 -0.20892 -6.24196e-14 -1.35177e-14 -1.55689e-15 -81.5662 17.8678 2.84778 8.79716 -3.44134 -15.565 0.00633828 -2.30431 0.324021 -4.50152e-11 -1.96378e-10 2.60996e-10 -8.02046e-11 -3.41046e-10 4.52175e-10 -4.5016e-11 -1.9638e-10 2.60995e-10 -7.73091 5.47488 -0.417314 -4.50136e-11 -1.96377e-10 2.60994e-10 -2.90554 0.965183 -0.102902 -4.50172e-11 -1.96377e-10 2.60992e-10 -10.2786 0.731801 -0.0259123 -4.50105e-11 -1.96375e-10 2.60982e-10 -2.22167 -0.733487 0.20892 -2.03217e-16 0.0 -3.88251e-19 9.4292 5.19964 5.22713 -0.275444 33.308 0.33956 -0.734576 -6.44424 -2.04427 2.03217e-16 0.0 3.88251e-19 1.83027 -30.6613 -2.68186 0.152093 27.1192 0.241588 0.153941 0.575412 -5.55671
4.09249 82.4728 50.44 -4.5793 -4.9834 -1.3449 3.72168 10.8333 6.69437 -2.10389 -4.87575 1.75568 -1.27391 -1.47324 -2.8397 1.57863 -8.06767 -5.14361 -0.0 0.0 0.0 -0.0 0.0 0.0 -1.70671e-14 -4.07508e-14 -5.59548e-14 77.4928 12.2403 8.30939 -14.0583 -7.00239 25.6695 -0.000216219 0.191132 0.0268692 -2.22555e-10 -5.36325e-11 1.00637e-10 -3.85413e-10 -9.15236e-11 1.74455e-10 -2.22551e-10 -5.36313e-11 1.00629e-10 7.73091 5.47488 0.417314 -2.22556e-10 -5.36345e-11 1.00635e-10 2.90554 0.965183 0.102902 -2.22549e-10 -5.36338e-11 1.0064e-10 10.2786 0.731801 0.0259123 -2.2256e-10 -5.36364e-11 1.00647e-10 2.22167 -0.733487 -0.20892 -1.71312e-14 -4.07515e-14 -5.61567e-14 -81.6582 17.2772 3.04734 8.68335 -3.37847 -15.3549 0.00426659 -1.92999 0.271337 -2.65479e-10 7.83476e-11 -3.45654e-10 -4.60137e-10 1.35565e-10 -5.97073e-10 -2.65478e-10 7.83448e-11 -3.45652e-10 -7.73091 5.47488 -0.417314 -2.65476e-10 7.8349e-11 -3.45654e-10 -2.90554 0.965183 -0.102902 -2.65481e-10 7.83488e-11 -3.45656e-10 -10.2786 0.731801 -0.0259123 -2.65472e-10 7.83517e-11 -3.45665e-10 -2.22167 -0.733487 0.20892 -2.03217e-16 0.0 -3.88251e-19 8.49724 4.29101 4.80327 -0.315831 35.7892 0.3761 -0.471292 -3.96765 -1.02323 2.03217e-16 0.0 3.88251e-19 0.960539 -30.3298 -2.6649 0.16513 27.9316 0.250086 0.118914 0.472497 -5.79058
4.32885 82.4177 51.5679 -4.0714 -4.9064 -1.5123 2.90994 10.8386 6.66922 -1.9376 -4.83689 1.72233 -1.34378 -1.46947 -2.86333 1.74703 -7.7451 -5.16069 -0.0 0.0 0.0 -0.0 0.0 0.0 3.07992e-14 -6.31144e-14 -1.05114e-13 77.8429 11.5447 7.94452 -13.912 -6.88416 25.376 -0.000482017 0.452594 0.0636171 -4.3142e-10 -3.95207e-10 2.01316e-10 -7.46156e-10 -6.83262e-10 3.49712e-10 -4.31417e-10 -3.95206e-10 2.01311e-10 7.73091 5.47488 0.417314 -4.31421e-10 -3.95209e-10 2.01313e-10 2.90554 0.965183 0.102902 -4.31414e-10 -3.95209e-10 2.01319e-10 10.2786 0.731801 0.0259123 -4.31424e-10 -3.9521e-10 2.01326e-10 2.22167 -0.733487 -0.20892 3.06747e-14 -6.31152e-14 -1.05277e-13 -81.7437 16.6954 3.23561 8.58746 -3.32613 -15.1779 0.00281934 -1.57618 0.221568 -4.96061e-10 3.53317e-10 -9.3506e-10 -8.5747e-10 6.12644e-10 -1.61664e-09 -4.96059e-10 3.53314e-10 -9.35055e-10 -7.73091 5.47488 -0.417314 -4.96058e-10 3.53319e-10 -9.35058e-10 -2.90554 0.965183 -0.102902 -4.96064e-10 3.53319e-10 -9.3506e-10 -10.2786 0.731801 -0.0259123 -4.96052e-10 3.53322e-10 -9.35069e-10 -2.22167 -0.733487 0.20892 -2.03217e-16 0.0 -3.88251e-19 7.55577 3.24836 4.33256 -0.362178 38.3427 0.417946 -0.289366 -1.16757 0.00293077 2.03217e-16 0.0 3.88251e-19 0.115454 -29.9353 -2.60339 0.177443 28.7103 0.259906 0.0699208 0.168925 -5.88046
4.54096 82.3427 52.6142 -3.7356 -4.7416 -1.5651 2.26038 10.8704 6.64518 -1.81461 -4.77614 1.6914 -1.38111 -1.41552 -2.87198 1.86873 -7.55873 -5.16062 -0.0 0.0 0.0 -0.0 0.0 0.0 6.11324e-14 -6.83823e-14 -1.17979e-13 78.1718 10.8585 7.59107 -13.7821 -6.77995 25.1166 -0.000740055 0.776766 0.109174 -5.54451e-10 -5.68248e-10 2.80029e-10 -9.58394e-10 -9.83545e-10 4.86581e-10 -5.54449e-10 -5.68247e-10 2.80026e-10 7.73091 5.47488 0.417314 -5.54452e-10 -5.68249e-10 2.80026e-10 2.90554 0.965183 0.102902 -5.54445e-10 -5.68249e-10 2.80031e-10 10.2786 0.731801 0.0259123 -5.54455e-10 -5.6825e-10 2.80038e-10 2.22167 -0.733487 -0.20892 6.09751e-14 -6.83831e-14 -1.18128e-13 -81.7971 16.2408 3.36308 8.50563 -3.28149 -15.0274 0.00207574 -1.30081 0.182849 -6.11616e-10 4.41445e-10 -1.27675e-09 -1.05637e-09 7.65858e-10 -2.20787e-09 -6.11614e-10 4.41441e-10 -1.27674e-09 -7.73091 5.47488 -0.417314 -6.11613e-10 4.41446e-10 -1.27675e-09 -2.90554 0.965183 -0.102902 -6.1162e-10 4.41446e-10 -1.27675e-09 -10.2786 0.731801 -0.0259123 -6.11607e-10 4.4145e-10 -1.27676e-09 -2.22167 -0.733487 0.20892 -2.03217e-16 0.0 -3.88251e-19 6.72862 2.15215 3.83847 -0.411693 40.7913 0.465561 -0.210225 1.83062 0.927824 2.03217e-16 0.0 3.88251e-19 -0.593525 -29.4835 -2.49236 0.188903 29.4687 0.268435 0.0152152 -0.204765 -5.99604
